<svg id="Layer_1" data-name="Layer 1" xmlns="http://www.w3.org/2000/svg" xmlns:xlink="http://www.w3.org/1999/xlink" viewBox="0 0 456.4 159.63"><defs><style>.cls-1,.cls-3,.cls-6{fill:none;}.cls-2{fill:#231f20;}.cls-11,.cls-3,.cls-6,.cls-8,.cls-9{stroke:#010101;}.cls-3{stroke-linecap:round;stroke-linejoin:round;}.cls-11,.cls-3,.cls-6,.cls-9{stroke-width:2.06px;}.cls-4{fill:#67cfe3;}.cls-5{clip-path:url(#clip-path);}.cls-11,.cls-6,.cls-8,.cls-9{stroke-miterlimit:10;}.cls-7{clip-path:url(#clip-path-2);}.cls-8{fill:#039447;stroke-width:2.58px;}.cls-9{fill:#094;}.cls-10{clip-path:url(#clip-path-4);}.cls-11{fill:#6cc04a;}</style><clipPath id="clip-path"><path class="cls-1" d="M224.1,76.43c6.8-3.9,21.3-14,21.3-33.6S223.9.93,223.9.93Z"/></clipPath><clipPath id="clip-path-2"><path class="cls-1" d="M223.7,76.43c-7.9-3.9-22.5-14-22.5-33.6S223.8.93,223.8.93Z"/></clipPath><clipPath id="clip-path-4"><path class="cls-1" d="M223.7,76.43c7.9-3.9,22.5-14,22.5-33.6,0-18.5-20.1-39.3-22.4-41.6h-.2c-2.3,2.3-22.4,23.2-22.4,41.6,0,19.6,14.5,29.7,22.5,33.6Z"/></clipPath></defs><title>logo</title><path class="cls-2" d="M9.5,131.93H.3l.3.3s.3.3.3,1.3v24.8c0,.4,0,.7-.4.9l-.5.3H5.4l-.5-.3a.83.83,0,0,1-.3-.8v-12.1H7.8c6.3,0,10-2.7,10-7.1C17.9,133.83,13.6,131.93,9.5,131.93Zm-4.9,2.2H9.5c.2,0,5.2.1,5.2,5,0,4.7-5.3,5-6.4,5H4.5v-10Z"/><path class="cls-2" d="M78.2,158.13,68.5,132H64.9l-9.7,26.1c0,.1-.1.2-.1.3a1.08,1.08,0,0,1-.7.8l-.5.3h4.5l2-5.4c2.1-3.1,7.5-4.8,10.6-5l3.9,10.5h4.6l-.5-.3A5,5,0,0,1,78.2,158.13Zm-7.8-10.9a27.44,27.44,0,0,0-8.1,2l4.3-12Z"/><path class="cls-2" d="M133.6,138.93c0-6.5-6.5-7-8.4-7H116l.3.3s.3.3.3,1.3v24.8c0,.4,0,.7-.4.9l-.5.3h5.4l-.5-.3a.83.83,0,0,1-.3-.8v-12.1h3.1l9,12c.4.6.3.7,0,.9l-.4.3h6l-10.8-13.7C128.5,145.63,133.6,144.23,133.6,138.93Zm-13.4-4.8H125c.5,0,5,.1,5,4.8a4.44,4.44,0,0,1-2.6,4.3,9.27,9.27,0,0,1-3.5.8h-3.7v-9.9Z"/><path class="cls-2" d="M194.6,132h-3.9v.2a2.71,2.71,0,0,1-.3,1.1l-9.8,11.6v.5l10.8,12.9a2.41,2.41,0,0,1,.3,1.1v.2H197l-13.3-15.3Z"/><path class="cls-2" d="M180.4,158.33v-24.9c0-.5.1-.9.3-1l.3-.3h-4.8l.3.3a1.5,1.5,0,0,1,.2,1v24.7a1.5,1.5,0,0,1-.2,1l-.3.3H181l-.3-.3C180.4,159,180.4,158.73,180.4,158.33Z"/><path class="cls-2" d="M274.9,132.43l.3-.3h-4.4v12H257.4v-12h-4.2l.4.3a1.5,1.5,0,0,1,.2,1v24.7c0,.5,0,.9-.2,1.1l-.3.3h4.2v-13.1H271v13.1h4.3l-.3-.3a1.19,1.19,0,0,1-.4-1.1v-24.7A1,1,0,0,1,274.9,132.43Z"/><path class="cls-2" d="M327.1,158.33v-24.9c0-.5.1-.9.3-1l.3-.3h-4.8l.3.3a1.5,1.5,0,0,1,.2,1v24.7a1.5,1.5,0,0,1-.2,1l-.3.3h4.8l-.3-.3C327.1,159,327.1,158.73,327.1,158.33Z"/><path class="cls-2" d="M391.3,157.13l-11.6.2v-23.9c0-.7.3-1.1.4-1.1l.3-.3h-5.3l.7.3c.3.1.3.5.3,1.1v24.8c0,.4,0,.9-.3,1l-.9.3h17.9v-2.9l-.3.3A2.17,2.17,0,0,1,391.3,157.13Z"/><path class="cls-2" d="M456.1,156.93c-.2.2-.6.2-1.1.2l-11.6.2v-23.9c0-.7.3-1.1.4-1.1l.3-.3h-5.3l.7.3c.3.1.3.5.3,1.1v24.8c0,.4,0,.9-.3,1l-.9.3h17.8v-2.9Z"/><path class="cls-3" d="M161.2,98.43s54.1-24.6,126.9,0"/><path class="cls-4" d="M223.7,76.43c7.9-3.9,22.5-14,22.5-33.6,0-18.5-19.9-39.5-22.2-41.8h-.2c-2.3,2.3-22.5,23.4-22.5,41.8-.1,19.6,14.4,29.7,22.4,33.6Z"/><g class="cls-5"><line class="cls-6" x1="221.4" y1="16.73" x2="232.9" y2="5.23"/><line class="cls-6" x1="221.2" y1="29.53" x2="237.5" y2="13.23"/><line class="cls-6" x1="221.4" y1="41.83" x2="247.5" y2="15.73"/><line class="cls-1" x1="221.4" y1="57.13" x2="247.5" y2="31.03"/></g><line class="cls-3" x1="223.8" y1="2.03" x2="223.8" y2="86.23"/><g class="cls-7"><line class="cls-1" x1="227" y1="62.53" x2="201" y2="36.53"/><line class="cls-6" x1="225.7" y1="35.13" x2="206.1" y2="15.63"/><line class="cls-6" x1="226.3" y1="23.43" x2="211.1" y2="8.23"/><line class="cls-1" x1="227.5" y1="49.23" x2="201.5" y2="23.23"/></g><g class="cls-7"><path class="cls-8" d="M237.2,61.93s-15.1-18.7-43.5-19.7"/><path class="cls-9" d="M227.3,72.13c-.3-.4-12.3-14.2-33.6-16.1-1-.1-2.1-.2-3.1-.2l-4.6-.2.7-18.4,4.6.2a29.66,29.66,0,0,1,4.2.3c29.6,2.7,45.5,22,46.2,22.9l2.9,3.6-14.3,11.6Z"/><path class="cls-6" d="M230.8,69.23c-.1-.2-14.3-17.1-40.1-18L191,42c30.2,1.1,46.3,20.6,46.9,21.4Z"/><path class="cls-6" d="M234.4,66.33s-15.1-18.7-43.5-19.7"/></g><g class="cls-10"><path class="cls-11" d="M190.6,78.83l5.4-9.6c1-1.8,4.9-8.1,13.3-15,11-9,25.2-15.1,41.1-17.6,1.9-.3,3.9-.6,5.8-.8l11.1-1.1,3.3,32.6-11.1,1.1c-1.3.1-2.7.3-4,.5-21.9,3.4-29.5,14.9-30.1,15.9l-5.3,9.5Z"/><path class="cls-6" d="M198.1,77l2.6-4.9c.6-1.1,4.1-7.1,11.8-13.5,10.1-8.4,23.2-14.1,37.9-16.4,1.8-.3,3.6-.5,5.5-.7l5.5-.6,2.2,22-5.5.6c-1.4.1-2.9.3-4.2.5-24.7,3.9-33.2,17.9-33.7,18.7l-2.6,4.8Z"/><path class="cls-6" d="M215.4,80.13l-9.7-5.3c.5-1,13.5-24,50.9-27.8l1.1,11C226,61.23,215.5,79.93,215.4,80.13Z"/><path class="cls-6" d="M210.5,77.53s11.6-21.4,46.6-24.9"/></g><path class="cls-3" d="M223.7,76.43c7.9-3.9,22.5-14,22.5-33.6,0-18.5-19.9-39.5-22.2-41.8h-.2c-2.3,2.3-22.5,23.4-22.5,41.8-.1,19.6,14.4,29.7,22.4,33.6Z"/></svg>