<svg id="Layer_1" data-name="Layer 1" xmlns="http://www.w3.org/2000/svg" xmlns:xlink="http://www.w3.org/1999/xlink" viewBox="0 0 172 218.51"><defs><style>.cls-1,.cls-2,.cls-5,.cls-6{fill:none;}.cls-11,.cls-2,.cls-5,.cls-6,.cls-8,.cls-9{stroke:#010101;}.cls-2,.cls-6{stroke-linecap:round;stroke-linejoin:round;}.cls-2{stroke-width:2.74px;}.cls-3{fill:#67cfe3;}.cls-4{clip-path:url(#clip-path);}.cls-11,.cls-5,.cls-8,.cls-9{stroke-miterlimit:10;}.cls-11,.cls-5,.cls-6,.cls-9{stroke-width:2.61px;}.cls-7{clip-path:url(#clip-path-2);}.cls-8{fill:#039447;stroke-width:3.26px;}.cls-9{fill:#094;}.cls-10{clip-path:url(#clip-path-4);}.cls-11{fill:#6cc04a;}.cls-12{fill:#231f20;}</style><clipPath id="clip-path"><path class="cls-1" d="M86.5,96.71c8.6-4.9,27-17.7,27-42.5s-27.2-53-27.2-53Z"/></clipPath><clipPath id="clip-path-2"><path class="cls-1" d="M86,96.71C76,91.81,57.6,79,57.6,54.21s28.6-53,28.6-53Z"/></clipPath><clipPath id="clip-path-4"><path class="cls-1" d="M86.1,96.71c10-4.9,28.4-17.7,28.4-42.5,0-23.4-25.4-49.8-28.3-52.7h-.3c-2.9,2.9-28.3,29.3-28.3,52.7,0,24.8,18.4,37.6,28.5,42.5Z"/></clipPath></defs><title>logo-stacked</title><path class="cls-2" d="M1.7,125.21s71.9-32.7,168.6,0"/><path class="cls-3" d="M86.1,96.71c10-4.9,28.4-17.7,28.4-42.5,0-23.4-25.2-50-28.1-52.9h-.3c-2.9,2.9-28.5,29.6-28.5,52.9,0,24.8,18.4,37.6,28.5,42.5Z"/><g class="cls-4"><line class="cls-5" x1="83.1" y1="21.21" x2="97.7" y2="6.61"/><line class="cls-5" x1="82.9" y1="37.41" x2="103.5" y2="16.71"/><line class="cls-5" x1="83.1" y1="52.91" x2="116.2" y2="19.91"/><line class="cls-1" x1="83.1" y1="72.31" x2="116.2" y2="39.31"/></g><line class="cls-6" x1="86.2" y1="2.61" x2="86.2" y2="109.11"/><g class="cls-7"><line class="cls-1" x1="90.2" y1="79.21" x2="57.3" y2="46.31"/><line class="cls-5" x1="88.6" y1="44.51" x2="63.8" y2="19.71"/><line class="cls-5" x1="89.4" y1="29.71" x2="70.1" y2="10.41"/><line class="cls-1" x1="90.9" y1="62.31" x2="58" y2="29.41"/></g><g class="cls-7"><path class="cls-8" d="M103.2,78.41s-19.1-23.7-55.1-24.9"/><path class="cls-9" d="M90.6,91.31c-.4-.5-15.6-18-42.6-20.4-1.3-.1-2.6-.2-3.9-.2l-5.8-.2.8-23.3,5.8.2,5.3.3c37.4,3.4,57.6,27.9,58.4,28.9l3.7,4.5L94.2,95.71Z"/><path class="cls-5" d="M95.1,87.61c-.2-.2-18.1-21.6-50.7-22.8l.4-11.7c38.2,1.4,58.5,26,59.4,27.1Z"/><path class="cls-5" d="M99.6,83.91S80.5,60.21,44.5,59"/></g><g class="cls-10"><path class="cls-11" d="M44.1,99.81l6.8-12.2c1.3-2.2,6.2-10.3,16.8-19,13.9-11.4,31.9-19.1,52-22.2,2.4-.4,4.9-.7,7.4-1L141.2,44l4.1,41.3-14.1,1.4c-1.7.2-3.4.4-5,.7-27.7,4.4-37.4,18.9-38.1,20.1l-6.7,12Z"/><path class="cls-5" d="M53.7,97.51l3.3-6.2c.8-1.4,5.1-8.9,14.9-17.1,12.7-10.7,29.3-17.8,47.9-20.8q3.45-.6,6.9-.9l7-.7,2.8,27.9-7,.7c-1.8.2-3.6.4-5.4.7-31.2,4.9-42,22.6-42.7,23.7l-3.3,6.1Z"/><path class="cls-5" d="M75.5,101.41l-12.3-6.7c.7-1.2,17-30.4,64.4-35.2l1.4,13.9C88.9,77.51,75.6,101.21,75.5,101.41Z"/><path class="cls-5" d="M69.4,98.11S84.1,71,128.3,66.61"/></g><path class="cls-6" d="M86.1,96.71c10-4.9,28.4-17.7,28.4-42.5,0-23.4-25.2-50-28.1-52.9h-.3c-2.9,2.9-28.5,29.6-28.5,52.9,0,24.8,18.4,37.6,28.5,42.5Z"/><path class="cls-12" d="M.5,175.61l-.5.3H5l-.5-.3c-.3-.2-.3-.4-.3-.8v-11h3c5.7,0,9.2-2.4,9.2-6.5,0-4.9-3.9-6.6-7.6-6.6H.3l.2.3a2.39,2.39,0,0,1,.2,1.2v22.7C.9,175.11.9,175.41.5,175.61Zm8.3-23c.2,0,4.8.1,4.8,4.6,0,4.3-4.9,4.6-5.8,4.6H4.3v-9.1H8.8Z"/><path class="cls-12" d="M68.9,174.61l-8.9-24H56.7l-8.8,23.9c0,.1-.1.2-.1.3a1.41,1.41,0,0,1-.6.8l-.5.3h4.1l1.8-5c2-2.8,6.8-4.4,9.8-4.6l3.5,9.5v.1h4.2l-.4-.3A2.54,2.54,0,0,1,68.9,174.61Zm-7.2-10a30.27,30.27,0,0,0-7.5,1.8l3.9-11Z"/><path class="cls-12" d="M116.7,157c0-6-5.9-6.4-7.7-6.4h-8.5l.2.3a2.39,2.39,0,0,1,.2,1.2v22.7c0,.4,0,.6-.3.8l-.5.3h5l-.5-.3c-.3-.2-.3-.4-.3-.8v-11.1h2.9l8.3,11c.3.6.3.7,0,.8l-.4.3h5.5l-9.9-12.6C112.1,163.11,116.7,161.81,116.7,157Zm-12.2-4.4h4.4c.5,0,4.6.1,4.6,4.4a4.2,4.2,0,0,1-2.4,4,7,7,0,0,1-3.2.7h-3.4Z"/><path class="cls-12" d="M153.2,175.61l-.3.3h4.4l-.3-.3a1.08,1.08,0,0,1-.2-.8V152a2.51,2.51,0,0,1,.2-1l.3-.3h-4.4l.3.3a1.5,1.5,0,0,1,.2,1v22.7C153.4,175.11,153.4,175.41,153.2,175.61Z"/><path class="cls-12" d="M156.9,162.91l9.9,11.8a2.15,2.15,0,0,1,.3,1v.2H172L159.8,162l9.7-11,.2-.3h-3.5v.2a2.15,2.15,0,0,1-.3,1l-9,10.6Z"/><path class="cls-12" d="M20.1,193.61l.3-.3h-4v11H4v-11H.2l.3.3a1.34,1.34,0,0,1,.2.9v22.6a1.5,1.5,0,0,1-.2,1l-.3.3H4v-12H16.4v12h4l-.3-.3a1.21,1.21,0,0,1-.3-1v-22.6C19.8,194.11,19.8,193.81,20.1,193.61Z"/><path class="cls-12" d="M62.2,217.31v-22.8a2.51,2.51,0,0,1,.2-1l.3-.3H58.3l.3.3a1.5,1.5,0,0,1,.2,1v22.7a1.5,1.5,0,0,1-.2,1l-.3.3h4.4l-.3-.3A1.34,1.34,0,0,1,62.2,217.31Z"/><path class="cls-12" d="M115.3,216.21l-10.7.2v-21.9a1.45,1.45,0,0,1,.3-1l.3-.3h-4.9l.6.3c.2.1.3.5.3,1v22.8c0,.4,0,.8-.3.9l-.8.3h16.4v-2.7l-.3.3C116.2,216.21,115.8,216.21,115.3,216.21Z"/><path class="cls-12" d="M168,216.21l-10.7.2v-21.9a1.45,1.45,0,0,1,.3-1l.3-.3H153l.6.3c.2.1.3.5.3,1v22.8c0,.4,0,.8-.3.9l-.8.3h16.4v-2.7l-.3.3C168.9,216.21,168.5,216.21,168,216.21Z"/></svg>