<svg id="Layer_1" data-name="Layer 1" xmlns="http://www.w3.org/2000/svg" xmlns:xlink="http://www.w3.org/1999/xlink" viewBox="0 0 128.96 99.46"><defs><style>.cls-1,.cls-2,.cls-5{fill:none;}.cls-2,.cls-5,.cls-7,.cls-8{stroke:#010101;}.cls-2{stroke-linecap:round;stroke-linejoin:round;}.cls-2,.cls-5,.cls-8{stroke-width:2.06px;}.cls-3,.cls-8{fill:#fff;}.cls-4{clip-path:url(#clip-path);}.cls-5,.cls-7,.cls-8{stroke-miterlimit:10;}.cls-6{clip-path:url(#clip-path-2);}.cls-7{fill:#039447;stroke-width:2.58px;}.cls-9{clip-path:url(#clip-path-4);}</style><clipPath id="clip-path"><path class="cls-1" d="M63.93,76.43c6.8-3.9,21.3-14,21.3-33.6S63.73.93,63.73.93Z"/></clipPath><clipPath id="clip-path-2"><path class="cls-1" d="M63.53,76.43c-7.9-3.9-22.5-14-22.5-33.6S63.63.93,63.63.93Z"/></clipPath><clipPath id="clip-path-4"><path class="cls-1" d="M63.53,76.43c7.9-3.9,22.5-14,22.5-33.6,0-18.5-20.1-39.3-22.4-41.6h-.2C61.13,3.53,41,24.43,41,42.83c0,19.6,14.5,29.7,22.5,33.6Z"/></clipPath></defs><title>logomark</title><path class="cls-2" d="M1,98.43s54.1-24.6,126.9,0"/><path class="cls-3" d="M63.53,76.43c7.9-3.9,22.5-14,22.5-33.6,0-18.5-19.9-39.5-22.2-41.8h-.2c-2.3,2.3-22.5,23.4-22.5,41.8-.1,19.6,14.4,29.7,22.4,33.6Z"/><g class="cls-4"><line class="cls-5" x1="61.23" y1="16.73" x2="72.73" y2="5.23"/><line class="cls-5" x1="61.03" y1="29.63" x2="77.33" y2="13.23"/><line class="cls-5" x1="61.23" y1="41.83" x2="87.33" y2="15.73"/><line class="cls-1" x1="61.23" y1="57.13" x2="87.33" y2="31.03"/></g><line class="cls-2" x1="63.63" y1="2.03" x2="63.63" y2="86.23"/><g class="cls-6"><line class="cls-1" x1="66.83" y1="62.63" x2="40.83" y2="36.63"/><line class="cls-5" x1="65.53" y1="35.13" x2="45.93" y2="15.63"/><line class="cls-5" x1="66.13" y1="23.53" x2="50.93" y2="8.23"/><line class="cls-1" x1="67.33" y1="49.23" x2="41.33" y2="23.23"/></g><g class="cls-6"><path class="cls-7" d="M77,62s-15.1-18.7-43.5-19.7"/><path class="cls-8" d="M67.13,72.13c-.3-.4-12.3-14.2-33.6-16.1-1-.1-2.1-.2-3.1-.2l-4.6-.2.7-18.4,4.6.2a29.67,29.67,0,0,1,4.2.3c29.6,2.7,45.5,22,46.2,22.9l2.9,3.6-14.3,11.6Z"/><path class="cls-5" d="M70.63,69.23c-.1-.2-14.3-17.1-40.1-18l.3-9.2c30.2,1.1,46.3,20.6,46.9,21.4Z"/><path class="cls-5" d="M74.23,66.33s-15.1-18.7-43.5-19.7"/></g><g class="cls-9"><path class="cls-8" d="M30.43,78.83l5.4-9.6c1-1.8,4.9-8.1,13.3-15,11-9,25.2-15.1,41.1-17.6,1.9-.3,3.9-.6,5.8-.8l11.1-1.1,3.3,32.6-11.1,1.1c-1.3.1-2.7.3-4,.5-21.9,3.4-29.5,14.9-30.1,15.9l-5.3,9.5Z"/><path class="cls-5" d="M37.93,77.13l2.6-4.9c.6-1.1,4.1-7.1,11.8-13.5,10.1-8.4,23.2-14.1,37.9-16.4,1.8-.3,3.6-.5,5.5-.7l5.5-.6,2.2,22-5.5.6c-1.4.1-2.9.3-4.2.5C69,68,60.53,82,60,82.83l-2.6,4.8Z"/><path class="cls-5" d="M55.23,80.13l-9.7-5.3c.5-1,13.5-24,50.9-27.8l1.1,11C65.83,61.23,55.33,79.93,55.23,80.13Z"/><path class="cls-5" d="M50.33,77.53s11.6-21.4,46.6-24.9"/></g><path class="cls-2" d="M63.53,76.43c7.9-3.9,22.5-14,22.5-33.6,0-18.5-19.9-39.5-22.2-41.8h-.2c-2.3,2.3-22.5,23.4-22.5,41.8-.1,19.6,14.4,29.7,22.4,33.6Z"/></svg>